FFmpeg version SVN-r25716, Copyright (c) 2000-2010 the FFmpeg developers  built on Nov 10 2010 12:23:18 with gcc 4.1.2 20080704 (Red Hat 4.1.2-48)  configuration: --enable-libmp3lame --enable-shared --disable-mmx --arch=x86_64  libavutil     50.33. 0 / 50.33. 0  libavcore      0.12. 1 /  0.12. 1  libavcodec    52.94. 4 / 52.94. 4  libavformat   52.84. 0 / 52.84. 0  libavdevice   52. 2. 2 / 52. 2. 2  libavfilter    1.59. 0 /  1.59. 0  libswscale     0.12. 0 /  0.12. 0Input #0, avi, from '/RAID10/data/converted_video_files/47602.avi':  Duration: 00:00:07.15, start: 0.000000, bitrate: 187458 kb/s    Stream #0.0: Video: msvideo1, rgb555le, 1024x1024, 20 tbr, 20 tbn, 20 tbc[buffer @ 0x4572380] w:1024 h:1024 pixfmt:rgb555le[ffsink @ 0x4571700] auto-inserting filter 'auto-inserted scaler 0' between the filter 'src' and the filter 'out'[scale @ 0x45719f0] w:1024 h:1024 fmt:rgb555le -> w:1024 h:1024 fmt:yuv420p flags:0x4Output #0, flv, to '/RAID10/data/converted_video_files/47602.flv':  Metadata:    encoder         : Lavf52.84.0    Stream #0.0: Video: flv, yuv420p, 1024x1024, q=2-31, 600 kb/s, 1k tbn, 24 tbcStream mapping:  Stream #0.0 -> #0.0Press [q] to stop encodingframe=    7 fps=  0 q=14.3 size=     873kB time=0.33 bitrate=21412.4kbits/s    frame=   15 fps= 12 q=31.0 size=     995kB time=0.75 bitrate=10870.6kbits/s    frame=   21 fps= 12 q=31.0 size=    1031kB time=1.04 bitrate=8103.7kbits/s    frame=   29 fps= 13 q=31.0 size=    1105kB time=1.46 bitrate=6206.8kbits/s    frame=   39 fps= 14 q=31.0 size=    1193kB time=1.96 bitrate=4990.3kbits/s    frame=   47 fps= 14 q=31.0 size=    1247kB time=2.33 bitrate=4380.3kbits/s    frame=   54 fps= 14 q=31.0 size=    1329kB time=2.71 bitrate=4019.5kbits/s    frame=   63 fps= 15 q=31.0 size=    1420kB time=3.12 bitrate=3721.4kbits/s    frame=   71 fps= 15 q=31.0 size=    1467kB time=3.54 bitrate=3393.3kbits/s    frame=   80 fps= 15 q=31.0 size=    1549kB time=4.00 bitrate=3173.3kbits/s    frame=   88 fps= 15 q=31.0 size=    1626kB time=4.38 bitrate=3045.0kbits/s    frame=   98 fps= 15 q=31.0 size=    1716kB time=4.87 bitrate=2884.5kbits/s    frame=  106 fps= 15 q=31.0 size=    1769kB time=5.29 bitrate=2737.9kbits/s    frame=  114 fps= 15 q=31.0 size=    1845kB time=5.71 bitrate=2647.5kbits/s    frame=  123 fps= 15 q=31.0 size=    1928kB time=6.12 bitrate=2578.7kbits/s    frame=  132 fps= 15 q=31.0 size=    1977kB time=6.58 bitrate=2459.3kbits/s    frame=  142 fps= 16 q=31.0 size=    2060kB time=7.08 bitrate=2382.6kbits/s    frame=  143 fps= 16 q=31.0 Lsize=    2066kB time=7.12 bitrate=2375.5kbits/s    video:2063kB audio:0kB global headers:0kB muxing overhead 0.118227%